<?xml version="1.0" encoding="utf-8"?>

<svg version="1.1" id="Icons" xmlns="http://www.w3.org/2000/svg" xmlns:xlink="http://www.w3.org/1999/xlink" x="0px" y="0px"
	 viewBox="0 0 32 32" style="enable-background:new 0 0 32 32;" xml:space="preserve">
<style type="text/css">
	.st0{fill:none;stroke:#000000;stroke-width:2;stroke-linecap:round;stroke-linejoin:round;stroke-miterlimit:10;}
</style>
<path class="st0" d="M6,14c0,5.5,4.5,10,10,10s10-4.5,10-10H6z"/>
<line class="st0" x1="4" y1="14" x2="28" y2="14"/>
<line class="st0" x1="20" y1="21" x2="25" y2="31"/>
<line class="st0" x1="7" y1="31" x2="12" y2="21"/>
<line class="st0" x1="9" y1="11" x2="14" y2="11"/>
<line class="st0" x1="18" y1="11" x2="23" y2="11"/>
<path class="st0" d="M12,1l0.6,0.6c0.8,0.8,0.8,2,0,2.8l0,0C12.2,4.8,12,5.3,12,5.8V7"/>
<path class="st0" d="M16,1l0.6,0.6c0.8,0.8,0.8,2,0,2.8l0,0C16.2,4.8,16,5.3,16,5.8V7"/>
<path class="st0" d="M20,1l0.6,0.6c0.8,0.8,0.8,2,0,2.8l0,0C20.2,4.8,20,5.3,20,5.8V7"/>
</svg>
