<?xml version="1.0" encoding="iso-8859-1"?>
<!-- Generator: Adobe Illustrator 18.0.0, SVG Export Plug-In . SVG Version: 6.00 Build 0)  -->
<!DOCTYPE svg PUBLIC "-//W3C//DTD SVG 1.1//EN" "http://www.w3.org/Graphics/SVG/1.1/DTD/svg11.dtd">
<svg version="1.1" id="Capa_1" xmlns="http://www.w3.org/2000/svg" xmlns:xlink="http://www.w3.org/1999/xlink" x="0px" y="0px"
	 viewBox="0 0 489.83 489.83" style="enable-background:new 0 0 489.83 489.83;" xml:space="preserve">
<g>
	<path d="M398.915,0h-308c-7.857,0-14.25,6.393-14.25,14.25v82.912c0,2.347,1.903,4.25,4.25,4.25h25.416v41.084
		c0,7.857,6.393,14.25,14.25,14.25h34.052v5.683c0,6.087,4.952,11.039,11.039,11.039h19.823c6.087,0,11.039-4.952,11.039-11.039
		v-5.682h32.047c7.857,0,14.25-6.393,14.25-14.25v-41.084h41.316c13.857,0,25.131,11.274,25.131,25.132v236.742
		c0,13.858-11.273,25.132-25.131,25.132h-59.574c11.929-4.791,20.378-16.469,20.378-30.09v-18.449
		c26.761-2.233,47.88-24.74,47.88-52.05s-21.119-49.816-47.88-52.05v-11.061c0-2.347-1.903-4.25-4.25-4.25H109.249
		c-2.347,0-4.25,1.903-4.25,4.25v133.61c0,13.622,8.449,25.299,20.377,30.09H80.915c-2.347,0-4.25,1.903-4.25,4.25v82.912
		c0,7.857,6.393,14.25,14.25,14.25h308c7.857,0,14.25-6.393,14.25-14.25V14.25C413.165,6.393,406.772,0,398.915,0z M244.952,267.325
		c9.501,1.982,16.668,10.431,16.668,20.504c0,10.074-7.166,18.521-16.668,20.504V267.325z M284.332,287.829
		c0,22.625-17.309,41.322-39.38,43.525v-14.397c14.211-2.081,25.168-14.36,25.168-29.128c0-14.769-10.957-27.047-25.168-29.129
		v-14.396C267.022,246.507,284.332,265.204,284.332,287.829z M113.499,358.328v-129.36h15.167v74.861c0,2.347,1.903,4.25,4.25,4.25
		c2.347,0,4.25-1.903,4.25-4.25v-74.861h99.287v129.36c0,13.189-10.73,23.918-23.919,23.918h-75.116
		C124.229,382.246,113.499,371.516,113.499,358.328z M188.034,162.428c0,1.4-1.139,2.539-2.539,2.539h-19.823
		c-1.4,0-2.539-1.139-2.539-2.539v-5.683h24.901V162.428z M234.332,142.496c0,3.17-2.58,5.75-5.75,5.75h-108
		c-3.17,0-5.75-2.58-5.75-5.75v-41.084h119.5V142.496z M404.665,475.58c0,3.17-2.58,5.75-5.75,5.75h-308
		c-3.17,0-5.75-2.58-5.75-5.75v-10.501h96.75c2.347,0,4.25-1.903,4.25-4.25c0-2.347-1.903-4.25-4.25-4.25h-96.75v-17.5h285.75
		c2.347,0,4.25-1.903,4.25-4.25c0-2.347-1.903-4.25-4.25-4.25H85.165v-33.661h198.983c18.544,0,33.631-15.087,33.631-33.632V126.544
		c0-18.544-15.087-33.632-33.631-33.632H85.165V66.079h164.75c2.347,0,4.25-1.903,4.25-4.25c0-2.347-1.903-4.25-4.25-4.25H85.165
		v-16.5h73.75c2.347,0,4.25-1.903,4.25-4.25c0-2.347-1.903-4.25-4.25-4.25h-73.75V14.25c0-3.17,2.58-5.75,5.75-5.75h308
		c3.17,0,5.75,2.58,5.75,5.75V475.58z"/>
	<path d="M132.915,320.579c-2.347,0-4.25,1.903-4.25,4.25v22c0,2.347,1.903,4.25,4.25,4.25c2.347,0,4.25-1.903,4.25-4.25v-22
		C137.165,322.482,135.262,320.579,132.915,320.579z"/>
	<path d="M357.915,156.545c-9.199,0-16.682,7.483-16.682,16.681c0,9.199,7.484,16.683,16.683,16.683s16.682-7.484,16.682-16.683
		C374.597,164.028,367.113,156.545,357.915,156.545z M357.915,181.408c-4.512,0-8.183-3.671-8.183-8.183
		c0-4.511,3.67-8.181,8.182-8.181c4.512,0,8.183,3.67,8.183,8.181C366.097,177.737,362.427,181.408,357.915,181.408z"/>
	<path d="M357.915,150.079c4.456,0,8.645-1.735,11.796-4.886c3.151-3.151,4.886-7.341,4.886-11.797
		c0-9.198-7.484-16.681-16.683-16.681c-9.199,0-16.682,7.483-16.682,16.681C341.232,142.595,348.716,150.079,357.915,150.079z
		 M357.914,125.215c4.512,0,8.183,3.67,8.183,8.182c0,2.185-0.851,4.24-2.396,5.786c-1.545,1.545-3.6,2.396-5.785,2.396
		c-4.512,0-8.183-3.671-8.183-8.183C349.732,128.885,353.402,125.215,357.914,125.215z"/>
</g>
<g>
</g>
<g>
</g>
<g>
</g>
<g>
</g>
<g>
</g>
<g>
</g>
<g>
</g>
<g>
</g>
<g>
</g>
<g>
</g>
<g>
</g>
<g>
</g>
<g>
</g>
<g>
</g>
<g>
</g>
</svg>
