<?xml version="1.0" encoding="iso-8859-1"?>
<!-- Generator: Adobe Illustrator 19.0.0, SVG Export Plug-In . SVG Version: 6.00 Build 0)  -->
<svg version="1.1" id="Layer_1" xmlns="http://www.w3.org/2000/svg" xmlns:xlink="http://www.w3.org/1999/xlink" x="0px" y="0px"
	 viewBox="0 0 512 512" style="enable-background:new 0 0 512 512;" xml:space="preserve">
<g>
	<g>
		<circle cx="128" cy="325.818" r="11.636"/>
	</g>
</g>
<g>
	<g>
		<path d="M430.545,197.818c-6.982,0-11.636,4.655-11.636,11.636v209.455c0,19.782-15.127,34.909-34.909,34.909H128
			c-19.782,0-34.909-15.127-34.909-34.909v-256c0-32.582,25.6-58.182,58.182-58.182h69.818c5.818,0,10.473-3.491,11.636-9.309
			l6.982-29.091c1.164-4.655,5.818-9.309,11.636-9.309h33.745c5.818,0,10.473,3.491,11.636,9.309l2.327,15.127h-31.418
			c-6.982,0-11.636,4.655-11.636,11.636c0,6.982,4.655,11.636,11.636,11.636h93.091c16.291,0,32.582,6.982,43.055,19.782
			c2.327,2.327,5.818,3.491,8.145,3.491s5.818-1.164,8.145-3.491c4.655-4.655,4.655-11.636,1.164-16.291
			C406.109,91.927,384,81.455,360.727,81.455h-37.236l-4.655-19.782c-4.655-16.291-18.618-26.764-34.909-26.764h-33.745
			c-16.291,0-30.255,10.473-33.745,26.764l-4.655,19.782h-60.509c-40.727,0-74.473,30.255-80.291,69.818H27.927
			C12.8,151.273,0,164.073,0,179.2c0,6.982,3.491,15.127,8.145,19.782L26.764,217.6c2.327,2.327,4.655,3.491,8.146,3.491
			s5.818-1.164,8.145-3.491c4.655-4.655,4.655-11.636,0-16.291l-18.618-18.618c-1.164-1.164-1.164-2.327-1.164-3.491
			c0-2.327,2.327-4.655,4.655-4.655h41.891v244.364c0,32.582,25.6,58.182,58.182,58.182h256c32.582,0,58.182-25.6,58.182-58.182
			V209.455C442.182,202.473,437.527,197.818,430.545,197.818z"/>
	</g>
</g>
<g>
	<g>
		<path d="M128,209.455c-6.982,0-11.636,4.655-11.636,11.636v69.818c0,6.982,4.655,11.636,11.636,11.636s11.636-4.655,11.636-11.636
			v-69.818C139.636,214.109,134.982,209.455,128,209.455z"/>
	</g>
</g>
<g>
	<g>
		<path d="M484.073,151.273H128c-6.982,0-11.636,4.655-11.636,11.636c0,6.982,4.655,11.636,11.636,11.636h356.073
			c2.327,0,4.655,2.327,4.655,4.655c0,1.164,0,2.327-1.164,3.491l-18.618,18.618c-4.655,4.655-4.655,11.636,0,16.291
			c2.327,2.327,5.818,3.491,8.145,3.491c2.327,0,5.818-1.164,8.146-3.491l18.618-18.618c4.655-4.655,8.145-12.8,8.145-19.782
			C512,164.073,499.2,151.273,484.073,151.273z"/>
	</g>
</g>
<g>
</g>
<g>
</g>
<g>
</g>
<g>
</g>
<g>
</g>
<g>
</g>
<g>
</g>
<g>
</g>
<g>
</g>
<g>
</g>
<g>
</g>
<g>
</g>
<g>
</g>
<g>
</g>
<g>
</g>
</svg>
