<?xml version="1.0" encoding="iso-8859-1"?>
<!-- Generator: Adobe Illustrator 19.0.0, SVG Export Plug-In . SVG Version: 6.00 Build 0)  -->
<svg version="1.1" id="Capa_1" xmlns="http://www.w3.org/2000/svg" xmlns:xlink="http://www.w3.org/1999/xlink" x="0px" y="0px"
	 viewBox="0 0 488.715 488.715" style="enable-background:new 0 0 488.715 488.715;" xml:space="preserve">
<g>
	<path d="M441.358,356.615c0-1-23.9-130-19.8-209.1c2.1-37.5-6.2-65.5-23.9-83.2c-16.6-16.6-36.4-17.7-41.6-17.7h-174.9
		c-0.4-8.9-6.5-16.7-14.5-18.7l-93.6-27c-6.2-2.1-22.5-2.4-26,19.8v93.5c3.1,25.8,23.9,19.8,26,20.8l93.6-27
		c8.3-3.1,14.6-10.4,14.6-19.8h39.5v47.6c-50,9.4-88.4,53.8-88.4,106.3v225.8c0,11.4,9.4,20.8,20.8,20.8h175.8
		c11.4,0,20.8-9.4,19.8-20.8v-225.8c0-51.8-37.3-95.7-86.3-105.9v-48h94.7c0,0,6.2,0,12.5,6.2c8.3,9.4,12.5,27,11.4,52
		c-4.2,84.3,19.8,213.3,20.8,218.5c2.1,9.4,10.4,16.6,19.8,16.6C435.158,381.515,443.358,368.015,441.358,356.615z M309.158,242.115
		v206h-135.2v-206c0-37.5,30.2-67.6,67.6-67.6C279.058,174.515,309.158,204.715,309.158,242.115z M140.658,72.515l-53,14.6v-40.6
		l53.1,15.6v10.4H140.658z"/>
</g>
<g>
</g>
<g>
</g>
<g>
</g>
<g>
</g>
<g>
</g>
<g>
</g>
<g>
</g>
<g>
</g>
<g>
</g>
<g>
</g>
<g>
</g>
<g>
</g>
<g>
</g>
<g>
</g>
<g>
</g>
</svg>
