<?xml version="1.0" encoding="iso-8859-1"?>
<!-- Generator: Adobe Illustrator 18.0.0, SVG Export Plug-In . SVG Version: 6.00 Build 0)  -->
<!DOCTYPE svg PUBLIC "-//W3C//DTD SVG 1.1//EN" "http://www.w3.org/Graphics/SVG/1.1/DTD/svg11.dtd">
<svg version="1.1" id="Capa_1" xmlns="http://www.w3.org/2000/svg" xmlns:xlink="http://www.w3.org/1999/xlink" x="0px" y="0px"
	 viewBox="0 0 330 330" style="enable-background:new 0 0 330 330;" xml:space="preserve">
<g>
	<path d="M215,0h-30c-34.609,0-62.98,27.191-64.891,61.332C80.319,68.396,50,103.212,50,145c0,8.284,6.716,15,15,15h140
		c8.284,0,15-6.716,15-15c0-41.685-30.17-76.431-69.814-83.615C152.001,43.778,166.922,30,185,30h30c19.299,0,35,15.701,35,35v250
		c0,8.284,6.716,15,15,15s15-6.716,15-15V65C280,29.159,250.841,0,215,0z M187.921,130H82.079
		C88.624,106.939,109.87,89.999,135,89.999S181.376,106.939,187.921,130z"/>
	<path d="M185,190c-8.284,0-15,6.716-15,15v20c0,8.284,6.716,15,15,15s15-6.716,15-15v-20C200,196.716,193.284,190,185,190z"/>
	<path d="M65,190c-8.284,0-15,6.716-15,15v20c0,8.284,6.716,15,15,15s15-6.716,15-15v-20C80,196.716,73.284,190,65,190z"/>
	<path d="M125,190c-8.284,0-15,6.716-15,15v20c0,8.284,6.716,15,15,15s15-6.716,15-15v-20C140,196.716,133.284,190,125,190z"/>
	<path d="M185,270c-8.284,0-15,6.716-15,15v20c0,8.284,6.716,15,15,15s15-6.716,15-15v-20C200,276.716,193.284,270,185,270z"/>
	<path d="M65,270c-8.284,0-15,6.716-15,15v20c0,8.284,6.716,15,15,15s15-6.716,15-15v-20C80,276.716,73.284,270,65,270z"/>
	<path d="M125,270c-8.284,0-15,6.716-15,15v20c0,8.284,6.716,15,15,15s15-6.716,15-15v-20C140,276.716,133.284,270,125,270z"/>
</g>
<g>
</g>
<g>
</g>
<g>
</g>
<g>
</g>
<g>
</g>
<g>
</g>
<g>
</g>
<g>
</g>
<g>
</g>
<g>
</g>
<g>
</g>
<g>
</g>
<g>
</g>
<g>
</g>
<g>
</g>
</svg>
