<?xml version="1.0" encoding="iso-8859-1"?>
<!-- Generator: Adobe Illustrator 19.0.0, SVG Export Plug-In . SVG Version: 6.00 Build 0)  -->
<svg version="1.1" id="Layer_1" xmlns="http://www.w3.org/2000/svg" xmlns:xlink="http://www.w3.org/1999/xlink" x="0px" y="0px"
	 viewBox="0 0 485 485" style="enable-background:new 0 0 485 485;" xml:space="preserve">
<g>
	<path d="M84.754,0c-23.642,0-45.51,12.525-61.576,35.269C8.232,56.43,0,84.301,0,113.75s8.232,57.32,23.179,78.481
		c12.602,17.841,28.776,29.391,46.576,33.543V485h30V225.774c17.799-4.152,33.973-15.702,46.575-33.543
		c14.947-21.161,23.179-49.032,23.179-78.481s-8.232-57.32-23.179-78.481C130.264,12.525,108.396,0,84.754,0z M84.754,197.5
		C55.075,197.5,30,159.147,30,113.75S55.075,30,84.754,30s54.754,38.353,54.754,83.75S114.434,197.5,84.754,197.5z"/>
	<path d="M198.914,85v223.084h70V485h30V0h-15C237.045,0,198.914,38.131,198.914,85z M268.914,278.084h-40V85
		c0-25.13,16.939-46.376,40-52.921V278.084z"/>
	<path d="M455,0v134.16h-33.34V0h-30v134.16h-33.34V0h-30v149.16c0,38.065,27.297,69.863,63.34,76.883V485h30V226.043
		c36.044-7.02,63.34-38.817,63.34-76.883V0H455z M406.66,197.5c-21.419,0-39.618-14.008-45.946-33.34h91.891
		C446.278,183.492,428.079,197.5,406.66,197.5z"/>
</g>
<g>
</g>
<g>
</g>
<g>
</g>
<g>
</g>
<g>
</g>
<g>
</g>
<g>
</g>
<g>
</g>
<g>
</g>
<g>
</g>
<g>
</g>
<g>
</g>
<g>
</g>
<g>
</g>
<g>
</g>
</svg>
