<?xml version="1.0" encoding="iso-8859-1"?>
<!-- Generator: Adobe Illustrator 18.0.0, SVG Export Plug-In . SVG Version: 6.00 Build 0)  -->
<!DOCTYPE svg PUBLIC "-//W3C//DTD SVG 1.1//EN" "http://www.w3.org/Graphics/SVG/1.1/DTD/svg11.dtd">
<svg version="1.1" id="Capa_1" xmlns="http://www.w3.org/2000/svg" xmlns:xlink="http://www.w3.org/1999/xlink" x="0px" y="0px"
	 viewBox="0 0 367.928 367.928" style="enable-background:new 0 0 367.928 367.928;" xml:space="preserve">
<g>
	<g>
		<path d="M367.928,108.589c0-3.866-3.134-7-7-7h-52.529V61.497c0.047-0.718,0.496-6.084,3.566-11.1
			c4.119-6.727,11.002-9.859,21.036-9.583c5.459,0.152,12.648,1.244,15.893,5.583c3.208,4.292,1.634,10.425,1.635,10.424
			c-1.063,3.717,1.09,7.592,4.807,8.654c3.716,1.061,7.592-1.09,8.654-4.807c0.365-1.278,3.363-12.767-3.751-22.477
			c-5.273-7.198-14.307-11.024-26.849-11.372c-19.4-0.548-29.061,8.89-33.74,16.895c-4.841,8.284-5.221,16.487-5.248,17.396
			c-0.002,0.07-0.003,0.141-0.003,0.211v40.268h-95.157V61.498c0.047-0.719,0.497-6.084,3.568-11.1
			c4.121-6.728,11.003-9.859,21.039-9.583c5.459,0.152,12.648,1.243,15.893,5.583c3.208,4.292,1.634,10.425,1.635,10.424
			c-1.063,3.717,1.09,7.592,4.807,8.654c3.718,1.061,7.592-1.09,8.654-4.807c0.365-1.278,3.363-12.767-3.751-22.477
			c-5.274-7.198-14.307-11.024-26.849-11.373c-19.418-0.538-29.063,8.89-33.742,16.895c-4.843,8.283-5.224,16.487-5.251,17.395
			c-0.002,0.071-0.003,0.141-0.003,0.212v40.268H7c-3.866,0-7,3.134-7,7v119.964c0.219,3.669,3.276,6.578,7,6.578
			c10.206,0,14.941,3.747,20.937,8.49c6.82,5.395,14.55,11.51,29.624,11.51s22.803-6.115,29.622-11.511
			c5.995-4.743,10.73-8.489,20.935-8.489s14.94,3.747,20.936,8.49c6.819,5.395,14.549,11.51,29.622,11.51
			c15.075,0,22.805-6.115,29.624-11.511c5.995-4.743,10.732-8.489,20.937-8.489c10.206,0,14.941,3.747,20.937,8.49
			c6.82,5.395,14.549,11.51,29.623,11.51c15.075,0,22.806-6.115,29.626-11.51c5.996-4.744,10.732-8.49,20.94-8.49
			c10.207,0,14.943,3.747,20.941,8.49c6.819,5.395,14.554,11.154,29.625,11.51c4.036,0.095,7-3.134,7-7
			c0-0.044-0.006-0.085-0.007-0.129c0.002,0,0.005-0.001,0.007-0.002V108.589z M185.241,125.589v102.815
			c-2.012,1.381-3.852,2.833-5.627,4.236c-5.996,4.744-10.732,8.49-20.938,8.49c-10.205,0-14.94-3.747-20.936-8.489
			c-6.819-5.395-14.548-11.511-29.622-11.511c-15.073,0-22.803,6.115-29.622,11.51c-5.995,4.743-10.73,8.49-20.936,8.49
			c-10.206,0-14.941-3.747-20.938-8.49C33,229.774,29.106,226.714,24,224.47c-0.681-0.299-1.386-0.581-2.111-0.849
			c-0.071-0.026-0.142-0.053-0.213-0.079c-0.74-0.268-1.501-0.52-2.294-0.75c-0.037-0.011-0.076-0.02-0.113-0.03
			c-0.704-0.202-1.434-0.384-2.182-0.552c-0.194-0.044-0.39-0.087-0.587-0.128c-0.81-0.17-1.636-0.326-2.5-0.452V115.589h171.241
			V125.589z M294.399,224.015c-5.629,2.276-9.794,5.565-13.662,8.625c-5.997,4.744-10.733,8.49-20.94,8.49
			c-10.206,0-14.941-3.747-20.937-8.49c-6.819-5.395-14.549-11.51-29.623-11.51c-3.755,0-7.053,0.38-9.995,1.033v-17.306h95.157
			V224.015z M294.399,190.858h-95.157v-30.574h95.157V190.858z M294.399,125.589v20.695h-95.157v-20.695v-10h95.157V125.589z
			 M339.988,232.641c-6.82-5.395-14.551-11.51-29.626-11.51c-0.675,0-1.318,0.026-1.964,0.05v-95.592v-10h45.529v10v114.816
			C348.163,239.097,344.416,236.144,339.988,232.641z"/>
		<path d="M360.928,284.13c-10.207,0-14.943-3.747-20.94-8.49c-6.82-5.395-14.551-11.51-29.626-11.51
			c-15.076,0-22.806,6.115-29.626,11.51c-5.997,4.744-10.733,8.49-20.94,8.49c-10.206,0-14.941-3.747-20.937-8.49
			c-6.819-5.395-14.549-11.51-29.623-11.51c-15.074,0-22.803,6.115-29.622,11.51c-5.996,4.744-10.732,8.49-20.938,8.49
			c-10.205,0-14.94-3.747-20.936-8.489c-6.819-5.396-14.548-11.511-29.622-11.511c-15.073,0-22.803,6.115-29.622,11.51
			c-5.995,4.743-10.73,8.49-20.936,8.49c-10.206,0-14.941-3.747-20.938-8.49C29.804,270.246,22.074,264.13,7,264.13
			c-3.866,0-7,3.134-7,7s3.134,7,7,7c10.206,0,14.941,3.747,20.937,8.49c6.82,5.395,14.55,11.51,29.624,11.51
			s22.803-6.115,29.622-11.511c5.995-4.743,10.73-8.489,20.935-8.489s14.94,3.747,20.936,8.49
			c6.819,5.395,14.549,11.51,29.622,11.51c15.075,0,22.805-6.115,29.624-11.511c5.995-4.743,10.732-8.489,20.937-8.489
			c10.206,0,14.941,3.747,20.937,8.49c6.82,5.395,14.549,11.51,29.623,11.51c15.075,0,22.806-6.115,29.626-11.51
			c5.996-4.744,10.732-8.49,20.94-8.49c10.207,0,14.943,3.747,20.941,8.49c6.819,5.395,14.55,11.51,29.625,11.51
			c3.866,0,7-3.134,7-7S364.794,284.13,360.928,284.13z"/>
		<path d="M360.928,327.13c-10.207,0-14.943-3.747-20.94-8.49c-6.82-5.395-14.551-11.51-29.626-11.51
			c-15.076,0-22.806,6.115-29.626,11.51c-5.997,4.744-10.733,8.49-20.94,8.49c-10.206,0-14.941-3.747-20.937-8.49
			c-6.819-5.395-14.549-11.51-29.623-11.51c-15.074,0-22.803,6.115-29.622,11.51c-5.996,4.744-10.732,8.49-20.938,8.49
			c-10.205,0-14.94-3.747-20.936-8.489c-6.819-5.396-14.548-11.511-29.622-11.511c-15.073,0-22.803,6.115-29.622,11.51
			c-5.995,4.743-10.73,8.49-20.936,8.49c-10.206,0-14.941-3.747-20.938-8.49C29.804,313.246,22.074,307.13,7,307.13
			c-3.866,0-7,3.134-7,7s3.134,7,7,7c10.206,0,14.941,3.747,20.937,8.49c6.82,5.395,14.55,11.51,29.624,11.51
			s22.803-6.115,29.622-11.511c5.995-4.743,10.73-8.489,20.935-8.489s14.94,3.747,20.936,8.49
			c6.819,5.395,14.549,11.51,29.622,11.51c15.075,0,22.805-6.115,29.624-11.511c5.995-4.743,10.732-8.489,20.937-8.489
			c10.206,0,14.941,3.747,20.937,8.49c6.82,5.395,14.549,11.51,29.623,11.51c15.075,0,22.806-6.115,29.626-11.51
			c5.996-4.744,10.732-8.49,20.94-8.49c10.207,0,14.943,3.747,20.941,8.49c6.819,5.395,14.55,11.51,29.625,11.51
			c3.866,0,7-3.134,7-7S364.794,327.13,360.928,327.13z"/>
	</g>
</g>
<g>
</g>
<g>
</g>
<g>
</g>
<g>
</g>
<g>
</g>
<g>
</g>
<g>
</g>
<g>
</g>
<g>
</g>
<g>
</g>
<g>
</g>
<g>
</g>
<g>
</g>
<g>
</g>
<g>
</g>
</svg>
