<?xml version="1.0" encoding="iso-8859-1"?>
<!-- Generator: Adobe Illustrator 18.0.0, SVG Export Plug-In . SVG Version: 6.00 Build 0)  -->
<!DOCTYPE svg PUBLIC "-//W3C//DTD SVG 1.1//EN" "http://www.w3.org/Graphics/SVG/1.1/DTD/svg11.dtd">
<svg version="1.1" id="Capa_1" xmlns="http://www.w3.org/2000/svg" xmlns:xlink="http://www.w3.org/1999/xlink" x="0px" y="0px"
	 viewBox="0 0 320 320" style="enable-background:new 0 0 320 320;" xml:space="preserve">
<g>
	<path d="M310,54.559h-12.48l2.502-7.085c1.08-3.061,0.608-6.455-1.266-9.104c-1.875-2.649-4.919-4.225-8.164-4.225H86.163
		c-27.652,0-50.974,18.345-57.818,43.183C14.085,80.814,3.49,93.441,3.49,108.445s10.595,27.631,24.854,31.117
		c6.844,24.839,30.166,43.185,57.818,43.185h54.281v61.029H41.17c-4.31-12.803-16.649-22.076-31.17-22.076c-5.522,0-10,4.478-10,10
		v44.154c0,5.522,4.478,10,10,10c14.522,0,26.862-9.274,31.171-22.078h109.273c5.522,0,10-4.478,10-10v-71.029h84.738
		c4.239,0,8.018-2.673,9.43-6.671l4.853-13.743H310c5.522,0,10-4.478,10-10V64.559C320,59.036,315.522,54.559,310,54.559z
		 M86.163,162.748c-21.979,0-39.861-17.162-39.861-38.258V92.4c0-21.095,17.882-38.256,39.861-38.256h190.293l-32.783,92.844
		c-0.793,1.25-1.32,2.683-1.492,4.227l-4.072,11.533H86.163z M300,142.334h-33.473l23.931-67.775H300V142.334z"/>
	<path d="M201.05,110.346c-13.292,0-24.106,10.61-24.106,23.652s10.814,23.652,24.106,23.652s24.105-10.61,24.105-23.652
		S214.342,110.346,201.05,110.346z"/>
</g>
<g>
</g>
<g>
</g>
<g>
</g>
<g>
</g>
<g>
</g>
<g>
</g>
<g>
</g>
<g>
</g>
<g>
</g>
<g>
</g>
<g>
</g>
<g>
</g>
<g>
</g>
<g>
</g>
<g>
</g>
</svg>
