<?xml version="1.0" encoding="iso-8859-1"?>
<!-- Generator: Adobe Illustrator 19.0.0, SVG Export Plug-In . SVG Version: 6.00 Build 0)  -->
<svg version="1.1" id="Layer_1" xmlns="http://www.w3.org/2000/svg" xmlns:xlink="http://www.w3.org/1999/xlink" x="0px" y="0px"
	 viewBox="0 0 512 512" style="enable-background:new 0 0 512 512;" xml:space="preserve">
<path d="M342.508,131.564h-20.329V93.778c0-9.425-7.641-17.067-17.067-17.067h-32.049V34.133h60.167
	c8.252,0,14.966,6.714,14.966,14.966c0,9.425,7.641,17.067,17.067,17.067S382.33,58.525,382.33,49.1c0-27.073-22.026-49.1-49.1-49.1
	h-77.234c-9.425,0-17.067,7.641-17.067,17.067v59.645h-32.042c-9.425,0-17.067,7.641-17.067,17.067v37.786h-20.329
	c-34.505,0-62.578,28.072-62.578,62.578v300.792c0,9.425,7.641,17.067,17.067,17.067h264.037c9.425,0,17.067-7.641,17.067-17.067
	V194.141C405.085,159.636,377.013,131.564,342.508,131.564z M223.955,110.845h64.091v20.719h-64.091V110.845z M370.952,477.867
	H141.048V194.141c0-15.684,12.76-28.444,28.444-28.444c40.024,0,139.068,0,173.015,0c15.684,0,28.444,12.76,28.444,28.444
	L370.952,477.867L370.952,477.867z"/>
<path d="M308.374,211.208H203.626c-9.425,0-17.067,7.641-17.067,17.067v187.014c0,9.425,7.641,17.067,17.067,17.067h104.748
	c9.425,0,17.067-7.641,17.067-17.067V228.275C325.441,218.849,317.8,211.208,308.374,211.208z M291.308,398.222h-70.615V245.341
	h70.615V398.222z"/>
<g>
</g>
<g>
</g>
<g>
</g>
<g>
</g>
<g>
</g>
<g>
</g>
<g>
</g>
<g>
</g>
<g>
</g>
<g>
</g>
<g>
</g>
<g>
</g>
<g>
</g>
<g>
</g>
<g>
</g>
</svg>
