<?xml version="1.0" encoding="iso-8859-1"?>
<!-- Generator: Adobe Illustrator 18.0.0, SVG Export Plug-In . SVG Version: 6.00 Build 0)  -->
<!DOCTYPE svg PUBLIC "-//W3C//DTD SVG 1.1//EN" "http://www.w3.org/Graphics/SVG/1.1/DTD/svg11.dtd">
<svg version="1.1" id="Capa_1" xmlns="http://www.w3.org/2000/svg" xmlns:xlink="http://www.w3.org/1999/xlink" x="0px" y="0px"
	 viewBox="0 0 223.793 223.793" style="enable-background:new 0 0 223.793 223.793;" xml:space="preserve">
<g>
	<path d="M199.78,216.293V55.523c0-4.143-3.357-7.5-7.5-7.5h-5.107V7.5c0-4.143-3.357-7.5-7.5-7.5H44.122
		c-4.143,0-7.5,3.357-7.5,7.5v40.523h-5.109c-4.143,0-7.5,3.357-7.5,7.5v160.77c0,4.143,3.357,7.5,7.5,7.5H192.28
		C196.423,223.793,199.78,220.436,199.78,216.293z M51.622,15h120.551v33.023H51.622V15z M184.78,208.793H39.013V63.023h5.109
		h135.551h5.107V208.793z"/>
	<path d="M162.73,79.486H61.065c-4.142,0-7.5,3.358-7.5,7.5c0,4.143,3.358,7.5,7.5,7.5H162.73c4.143,0,7.5-3.357,7.5-7.5
		C170.23,82.844,166.872,79.486,162.73,79.486z"/>
	<path d="M162.73,108.311H61.065c-4.142,0-7.5,3.357-7.5,7.5v69.019c0,4.143,3.358,7.5,7.5,7.5H162.73c4.143,0,7.5-3.357,7.5-7.5
		v-69.019C170.23,111.668,166.872,108.311,162.73,108.311z M155.23,177.33H68.565v-54.019h86.664V177.33z"/>
	<path d="M145.12,23.934c-4.184,0-7.588,3.408-7.588,7.6c0,4.168,3.404,7.559,7.588,7.559c4.192,0,7.604-3.391,7.604-7.559
		C152.724,27.342,149.313,23.934,145.12,23.934z"/>
	<path d="M111.888,23.934c-4.184,0-7.588,3.408-7.588,7.6c0,4.168,3.404,7.559,7.588,7.559c4.186,0,7.59-3.391,7.59-7.559
		C119.478,27.342,116.073,23.934,111.888,23.934z"/>
	<path d="M78.657,23.934c-4.183,0-7.586,3.408-7.586,7.6c0,4.168,3.403,7.559,7.586,7.559c4.19,0,7.6-3.391,7.6-7.559
		C86.257,27.342,82.848,23.934,78.657,23.934z"/>
</g>
<g>
</g>
<g>
</g>
<g>
</g>
<g>
</g>
<g>
</g>
<g>
</g>
<g>
</g>
<g>
</g>
<g>
</g>
<g>
</g>
<g>
</g>
<g>
</g>
<g>
</g>
<g>
</g>
<g>
</g>
</svg>
