<?xml version="1.0" encoding="iso-8859-1"?>
<!-- Generator: Adobe Illustrator 18.0.0, SVG Export Plug-In . SVG Version: 6.00 Build 0)  -->
<!DOCTYPE svg PUBLIC "-//W3C//DTD SVG 1.1//EN" "http://www.w3.org/Graphics/SVG/1.1/DTD/svg11.dtd">
<svg version="1.1" id="Capa_1" xmlns="http://www.w3.org/2000/svg" xmlns:xlink="http://www.w3.org/1999/xlink" x="0px" y="0px"
	 viewBox="0 0 297 297" style="enable-background:new 0 0 297 297;" xml:space="preserve">
<g>
	<path d="M146.311,73.786c-0.379-5.256-4.754-9.327-10.024-9.327H80.079c-5.27,0-9.645,4.071-10.024,9.327L54.821,285.223
		c-0.2,2.783,0.765,5.525,2.667,7.568c1.901,2.043,4.565,3.203,7.356,3.203h86.676c0.006,0,0.014,0,0.02,0
		c5.551,0,10.049-4.5,10.049-10.049c0-0.465-0.031-0.924-0.092-1.372L146.311,73.786z M75.644,275.896L89.431,84.558h37.505
		l13.786,191.338H75.644z"/>
	<path d="M133.064,11.426c-0.679-4.978-4.932-8.69-9.957-8.69H92.862c-5.068,0-9.343,3.773-9.972,8.802l-4.378,34.99
		c-0.357,2.86,0.53,5.736,2.438,7.897c1.908,2.162,4.652,3.4,7.534,3.4h39.399c0.006,0,0.014,0,0.02,0
		c5.551,0,10.049-4.5,10.049-10.049L133.064,11.426z M101.732,22.835h12.604l2.032,14.891h-16.5L101.732,22.835z"/>
	<path d="M242.205,10.049c0-5.55-4.5-10.049-10.049-10.049h-30.861c-12.013,0-21.787,8.969-21.787,19.994
		c0,3.025,0.739,5.944,2.099,8.576c-1.36,2.633-2.099,5.553-2.099,8.577c0,3.025,0.739,5.944,2.099,8.576
		c-1.36,2.633-2.099,5.553-2.099,8.577c0,3.025,0.739,5.944,2.099,8.576c-1.36,2.633-2.099,5.553-2.099,8.577
		c0,11.024,9.774,19.993,21.787,19.993h14.86l-20.067,34.426c-0.895,1.537-1.367,3.283-1.367,5.061v156.016
		c0,5.55,4.5,10.049,10.049,10.049c5.55,0,10.049-4.5,10.049-10.049V133.65l26.017-44.635c0.895-1.537,1.367-3.283,1.367-5.061
		V10.049z M200.825,71.321c2.847-1.836,4.601-5.006,4.601-8.444c0-3.522-1.841-6.764-4.812-8.577
		c2.971-1.813,4.812-5.054,4.812-8.576c0-3.522-1.841-6.764-4.812-8.576c2.971-1.814,4.812-5.055,4.812-8.577
		c0-3.438-1.754-6.608-4.601-8.444c0.145-0.018,0.302-0.028,0.47-0.028h20.811v51.25h-20.811
		C201.127,71.349,200.97,71.339,200.825,71.321z"/>
</g>
<g>
</g>
<g>
</g>
<g>
</g>
<g>
</g>
<g>
</g>
<g>
</g>
<g>
</g>
<g>
</g>
<g>
</g>
<g>
</g>
<g>
</g>
<g>
</g>
<g>
</g>
<g>
</g>
<g>
</g>
</svg>
