<?xml version="1.0" encoding="iso-8859-1"?>
<!-- Generator: Adobe Illustrator 19.0.0, SVG Export Plug-In . SVG Version: 6.00 Build 0)  -->
<svg version="1.1" id="Layer_1" xmlns="http://www.w3.org/2000/svg" xmlns:xlink="http://www.w3.org/1999/xlink" x="0px" y="0px"
	 viewBox="0 0 503.607 503.607" style="enable-background:new 0 0 503.607 503.607;" xml:space="preserve">
<g>
	<g>
		<path d="M461.639,100.721V16.787c0-4.636-3.758-8.393-8.393-8.393h-25.18c0-4.636-3.758-8.393-8.393-8.393h-67.148
			c-4.636,0-8.393,3.758-8.393,8.393h-25.18c-4.636,0-8.393,3.758-8.393,8.393v83.934c-4.636,0-8.393,3.758-8.393,8.393V218.23
			c0,0.837,0.125,1.669,0.371,2.468l2.572,8.36c0.011,0.038,0.023,0.076,0.035,0.113l10.282,33.416
			c0.019,0.065,0.039,0.131,0.06,0.195l20.624,67.029c1.084,3.522,4.337,5.925,8.022,5.925h16.787v67.148
			c0,27.76-22.603,50.361-50.361,50.361H193.049c-27.783,0-50.361-22.517-50.361-50.252v-67.257h16.787
			c3.685,0,6.939-2.403,8.022-5.925l20.62-67.015c0.025-0.075,0.047-0.151,0.07-0.227l12.884-41.873
			c0.246-0.8,0.371-1.632,0.371-2.468V109.115c0-4.636-3.758-8.393-8.393-8.393V16.787c0-4.636-3.758-8.393-8.393-8.393h-25.18
			c0-4.636-3.758-8.393-8.393-8.393H83.934c-4.636,0-8.393,3.758-8.393,8.393h-25.18c-4.636,0-8.393,3.758-8.393,8.393v83.934
			c-4.636,0-8.393,3.758-8.393,8.393V218.23c0,0.837,0.125,1.669,0.371,2.468l2.573,8.361c0.011,0.037,0.022,0.074,0.034,0.111
			l10.282,33.417c0.019,0.065,0.039,0.131,0.06,0.195l20.624,67.029c1.084,3.522,4.338,5.925,8.022,5.925h16.787v67.257
			c0,55.524,45.162,100.612,100.721,100.612h117.508c55.542,0,100.721-45.18,100.721-100.721v-67.148h16.787
			c3.685,0,6.939-2.403,8.022-5.925l20.62-67.015c0.025-0.075,0.047-0.151,0.07-0.227l12.884-41.873
			c0.246-0.8,0.371-1.632,0.371-2.468V109.115C470.033,104.479,466.275,100.721,461.639,100.721z M444.852,25.18v75.541h-16.787
			h-16.787V83.934h8.393c4.636,0,8.393-3.758,8.393-8.393V25.18H444.852z M369.311,117.508h33.574h15.73
			c-3.726,14.483-16.868,25.18-32.517,25.18c-15.649,0-28.791-10.697-32.517-25.18H369.311z M411.279,16.787v50.361h-8.393
			c-4.636,0-8.393,3.758-8.393,8.393v25.18h-16.787v-25.18c0-4.636-3.758-8.393-8.393-8.393h-8.393V16.787H411.279z M327.344,25.18
			h16.787v50.361c0,4.636,3.758,8.393,8.393,8.393h8.393v16.787h-16.787h-16.787V25.18z M176.262,25.18v75.541h-16.787h-16.787
			V83.934h8.393c4.636,0,8.393-3.758,8.393-8.393V25.18H176.262z M100.721,117.508h33.574h15.73
			c-3.726,14.483-16.868,25.18-32.517,25.18c-15.649,0-28.791-10.697-32.517-25.18H100.721z M142.689,16.787v50.361h-8.393
			c-4.636,0-8.393,3.758-8.393,8.393v25.18h-16.787v-25.18c0-4.636-3.758-8.393-8.393-8.393h-8.393V16.787H142.689z M58.754,25.18
			h16.787v50.361c0,4.636,3.758,8.393,8.393,8.393h8.393v16.787H75.541H58.754V25.18z M76.575,302.164h15.749
			c4.636,0,8.393-3.758,8.393-8.393s-3.758-8.393-8.393-8.393H71.41l-5.165-16.787h26.084c4.636,0,8.393-3.758,8.393-8.393
			c0-4.636-3.758-8.393-8.393-8.393H61.079l-5.165-16.787h36.41c4.636,0,8.393-3.758,8.393-8.393s-3.758-8.393-8.393-8.393H50.749
			l-0.388-1.262v-15.525h41.967c4.636,0,8.393-3.758,8.393-8.393c0-4.636-3.758-8.393-8.393-8.393H50.361v-67.148h17.496
			c3.996,23.819,24.694,41.967,49.651,41.967c24.957,0,45.655-18.148,49.651-41.967h17.496v67.148h-41.967
			c-4.636,0-8.393,3.758-8.393,8.393c0,4.636,3.758,8.393,8.393,8.393h41.967v15.525l-0.388,1.262h-41.579
			c-4.636,0-8.393,3.758-8.393,8.393s3.758,8.393,8.393,8.393h36.414l-5.165,16.787h-31.249c-4.636,0-8.393,3.758-8.393,8.393
			c0,4.636,3.758,8.393,8.393,8.393h26.083l-5.165,16.787h-20.918c-4.636,0-8.393,3.758-8.393,8.393s3.758,8.393,8.393,8.393h15.753
			l-5.165,16.787h-18.981h-33.574H81.74L76.575,302.164z M394.492,402.885c0,46.271-37.664,83.934-83.934,83.934H193.049
			c-46.294,0-83.934-37.578-83.934-83.825v-67.257h16.787v67.257c0,37.016,30.103,67.038,67.148,67.038h117.508
			c37.029,0,67.148-30.116,67.148-67.148v-67.148h16.787V402.885z M402.885,318.951h-33.574H350.33l-5.165-16.787h15.749
			c4.636,0,8.393-3.758,8.393-8.393s-3.758-8.393-8.393-8.393H340l-5.165-16.787h26.084c4.636,0,8.393-3.758,8.393-8.393
			c0-4.636-3.758-8.393-8.393-8.393h-31.249l-5.165-16.787h36.41c4.636,0,8.393-3.758,8.393-8.393s-3.758-8.393-8.393-8.393h-41.576
			l-0.388-1.262v-15.525h41.967c4.636,0,8.393-3.758,8.393-8.393c0-4.636-3.758-8.393-8.393-8.393h-41.967v-67.148h17.496
			c3.996,23.819,24.694,41.967,49.651,41.967c24.957,0,45.655-18.148,49.651-41.967h17.496v67.148h-41.967
			c-4.636,0-8.393,3.758-8.393,8.393c0,4.636,3.758,8.393,8.393,8.393h41.967v15.525l-0.388,1.262h-41.579
			c-4.636,0-8.393,3.758-8.393,8.393s3.758,8.393,8.393,8.393h36.414l-5.165,16.787h-31.249c-4.636,0-8.393,3.758-8.393,8.393
			c0,4.636,3.758,8.393,8.393,8.393h26.083l-5.165,16.787h-20.918c-4.636,0-8.393,3.758-8.393,8.393s3.758,8.393,8.393,8.393h15.753
			l-5.165,16.787H402.885z"/>
	</g>
</g>
<g>
</g>
<g>
</g>
<g>
</g>
<g>
</g>
<g>
</g>
<g>
</g>
<g>
</g>
<g>
</g>
<g>
</g>
<g>
</g>
<g>
</g>
<g>
</g>
<g>
</g>
<g>
</g>
<g>
</g>
</svg>
