<?xml version="1.0" encoding="utf-8"?>

<svg version="1.1" id="Icons" xmlns="http://www.w3.org/2000/svg" xmlns:xlink="http://www.w3.org/1999/xlink" x="0px" y="0px"
	 viewBox="0 0 32 32" style="enable-background:new 0 0 32 32;" xml:space="preserve">
<path d="M28.6,21.2L18,16.1c-0.6-0.4-1-1.1-1-1.8c0-0.8,0.4-1.4,0.9-1.8c1.5-0.8,2.3-2.5,2-4.2c-0.3-1.6-1.6-2.9-3.2-3.2
	c-1.2-0.2-2.4,0.1-3.3,0.9C12.5,6.7,12,7.8,12,9v1c0,0.6,0.4,1,1,1s1-0.4,1-1V9c0-0.6,0.3-1.2,0.7-1.5c0.5-0.4,1-0.5,1.7-0.4
	c0.8,0.1,1.5,0.8,1.6,1.6c0.2,0.9-0.2,1.7-1,2.1c-1.2,0.7-2,2-2,3.5c0,0.4,0,0.7,0.1,1.1L3.3,21.2c-0.8,0.4-1.3,1.3-1.1,2.2
	c0.2,0.9,1,1.5,1.9,1.5h23.4c1,0,1.7-0.6,1.9-1.5C29.8,22.5,29.4,21.6,28.6,21.2z M4.2,23l11.9-5.9c0.3,0.3,0.6,0.5,0.9,0.8L27.7,23
	H4.2z"/>
</svg>
