<?xml version="1.0" encoding="iso-8859-1"?>
<!-- Generator: Adobe Illustrator 19.0.0, SVG Export Plug-In . SVG Version: 6.00 Build 0)  -->
<svg version="1.1" id="Layer_1" xmlns="http://www.w3.org/2000/svg" xmlns:xlink="http://www.w3.org/1999/xlink" x="0px" y="0px"
	 viewBox="0 0 511.999 511.999" style="enable-background:new 0 0 511.999 511.999;" xml:space="preserve">
<g>
	<g>
		<g>
			<path d="M485,310.323c0.476-1.252,0.737-2.597,0.737-3.999c0-6.491-5.595-11.77-12.474-11.77c-0.176,0-0.395,0.008-0.648,0.021
				c-14.296-17.056-31.055-33.7-47.757-47.983c-0.013-0.012-0.026-0.023-0.04-0.033c0.829-2.716,1.066-5.601,0.624-8.497
				c-0.772-5.076-3.467-9.541-7.582-12.566l-23.743-17.483c-6.777-4.983-15.767-4.832-22.324-0.281
				c-9.66-5.962-19.327-11.347-28.868-16.041c-31.513-15.502-60.76-23.363-86.927-23.363H98.27v-23.9
				c0-20.451-16.639-37.091-37.091-37.091H20.796c-4.562,0-8.259,3.697-8.259,8.259c0,4.562,3.697,8.259,8.259,8.259H61.18
				c11.344,0,20.572,9.228,20.572,20.572v23.9H64.956C29.14,168.33,0,197.47,0,233.287v138.218c0,0.076,0.01,0.15,0.011,0.225H0
				v17.385c0,8.572,6.973,15.546,15.544,15.546h480.911c8.571,0,15.544-6.974,15.544-15.546v-17.61
				C512,354.208,501.193,332.421,485,310.323z M459.221,304.259c-7.402-1.383-15.535-6.537-21.112-12.785
				c-5.91-6.624-9.04-13.699-9.997-19.801C439.626,282.44,450.123,293.473,459.221,304.259z M16.518,233.287
				c0-26.709,21.728-48.438,48.438-48.438h191.043c44.195,0,102.623,27.275,156.607,73.024c-3.963,13.522,0.929,30.872,13.178,44.6
				c10.751,12.046,24.592,18.675,37.062,18.674c3.018,0,5.952-0.403,8.748-1.197c11.977,16.338,20.08,31.439,22.838,43.296H339.235
				c1.377-3.243,2.14-6.808,2.14-10.548c0-14.926-12.142-27.068-27.068-27.068H16.518V233.287z M16.518,342.148h297.788
				c5.817,0,10.55,4.733,10.55,10.55c0,5.816-4.733,10.548-10.55,10.548H16.518V342.148z M495.482,388.142H16.518v-8.378h478.963
				V388.142z"/>
			<path d="M277.019,262.719c-6.551-15.122-35.966-57.956-84.398-57.956H88.107c-15.73,0-28.526,12.795-28.526,28.523v40.761
				c0,15.728,12.796,28.523,28.526,28.523h162.731c15.728,0,28.524-12.795,28.524-28.523c0-3.775-0.73-7.449-2.17-10.922
				C277.137,262.986,277.079,262.851,277.019,262.719z M259.816,281.993c-3.364-7.13-10.603-12.088-18.995-12.088h-33.395
				c-9.909,0-18.218,6.905-20.42,16.148H88.107c-6.622,0-12.008-5.386-12.008-12.005v-40.761c0-6.619,5.387-12.005,12.008-12.005
				h104.513c36.674,0,62.483,32.342,69.251,48.027c0.021,0.046,0.04,0.093,0.062,0.139c0.606,1.459,0.912,3.006,0.912,4.6
				C262.845,277.096,261.693,279.873,259.816,281.993z"/>
		</g>
	</g>
</g>
<g>
</g>
<g>
</g>
<g>
</g>
<g>
</g>
<g>
</g>
<g>
</g>
<g>
</g>
<g>
</g>
<g>
</g>
<g>
</g>
<g>
</g>
<g>
</g>
<g>
</g>
<g>
</g>
<g>
</g>
</svg>
