<?xml version="1.0" encoding="iso-8859-1"?>
<!-- Generator: Adobe Illustrator 19.0.0, SVG Export Plug-In . SVG Version: 6.00 Build 0)  -->
<svg version="1.1" id="Layer_1" xmlns="http://www.w3.org/2000/svg" xmlns:xlink="http://www.w3.org/1999/xlink" x="0px" y="0px"
	 viewBox="0 0 512 512" style="enable-background:new 0 0 512 512;" xml:space="preserve">
<g>
	<g>
		<path d="M471.469,84.155l-47.75-79.22C421.874,1.873,418.56,0,414.985,0s-6.89,1.873-8.735,4.934l-47.75,79.22
			c-0.958,1.589-1.465,3.41-1.465,5.265v42.977H314.13V89.419c0-1.875-0.516-3.713-1.492-5.312l-48.329-79.22
			C262.457,1.851,259.157,0,255.602,0c-0.008,0-0.016,0-0.023,0c-3.565,0.008-6.865,1.877-8.708,4.928l-47.821,79.22
			c-0.96,1.591-1.468,3.414-1.468,5.271v42.977h-42.616V89.419c0-1.855-0.506-3.676-1.465-5.265l-47.749-79.22
			C103.906,1.873,100.592,0,97.017,0s-6.89,1.873-8.735,4.934l-47.751,79.22c-0.958,1.589-1.465,3.41-1.465,5.265v412.381
			c0,5.632,4.566,10.199,10.199,10.199h95.499c5.633,0,10.199-4.567,10.199-10.199v-61.426h42.616v61.426
			c0,5.632,4.566,10.199,10.199,10.199h96.15c5.633,0,10.199-4.567,10.199-10.199v-61.426h42.906v61.426
			c0,5.632,4.566,10.199,10.199,10.199h95.498c5.633,0,10.199-4.567,10.199-10.199V89.419
			C472.932,87.564,472.427,85.743,471.469,84.155z M134.568,491.602L134.568,491.602H59.467V92.256l37.55-62.3l37.55,62.3V491.602z
			 M197.581,419.977h-42.616v-52.311h42.616V419.977z M197.581,347.269h-42.616V225.504h42.616V347.269z M197.581,205.106h-42.616
			v-52.311h42.616V205.106z M293.731,491.602H217.98V92.259l37.668-62.401l38.084,62.426V491.602z M357.036,419.977H314.13v-52.311
			h42.906V419.977z M357.036,347.269H314.13V225.504h42.906V347.269z M357.036,205.106H314.13v-52.311h42.906V205.106z
			 M452.534,491.602h-75.1V92.256l37.55-62.3l37.549,62.299V491.602z"/>
	</g>
</g>
<g>
	<g>
		<path d="M429.092,320.138c-5.633,0-10.199,4.567-10.199,10.199v3.255c0,5.633,4.566,10.199,10.199,10.199
			c5.633,0,10.199-4.567,10.199-10.199v-3.255C439.291,324.705,434.725,320.138,429.092,320.138z"/>
	</g>
</g>
<g>
	<g>
		<path d="M429.092,357.035c-5.633,0-10.199,4.567-10.199,10.199v102.01c0,5.632,4.566,10.198,10.199,10.198
			c5.633,0,10.199-4.567,10.199-10.199V367.235C439.291,361.603,434.725,357.035,429.092,357.035z"/>
	</g>
</g>
<g>
</g>
<g>
</g>
<g>
</g>
<g>
</g>
<g>
</g>
<g>
</g>
<g>
</g>
<g>
</g>
<g>
</g>
<g>
</g>
<g>
</g>
<g>
</g>
<g>
</g>
<g>
</g>
<g>
</g>
</svg>
