<?xml version="1.0" encoding="iso-8859-1"?>
<!-- Generator: Adobe Illustrator 19.0.0, SVG Export Plug-In . SVG Version: 6.00 Build 0)  -->
<svg version="1.1" id="Layer_1" xmlns="http://www.w3.org/2000/svg" xmlns:xlink="http://www.w3.org/1999/xlink" x="0px" y="0px"
	 viewBox="0 0 512 512" style="enable-background:new 0 0 512 512;" xml:space="preserve">
<g>
	<g>
		<path d="M256,0C159.826,0,81.582,78.244,81.582,174.418c0,60.686,17.555,117.932,49.432,161.193
			c26.864,36.459,61.254,59.587,98.766,66.943c3.94,13.917,13.21,22.427,20.44,29.053c8.113,7.437,11.406,10.763,11.406,18.503
			s-3.293,11.065-11.406,18.503c-9.433,8.647-22.352,20.489-22.352,43.387h33.758c0-7.739,3.293-11.065,11.406-18.503
			c9.433-8.648,22.352-20.489,22.352-43.387c0-22.898-12.919-34.741-22.352-43.387c-0.93-0.852-1.788-1.644-2.594-2.401
			c42.07-4.476,80.895-28.467,110.547-68.71c31.877-43.261,49.432-100.507,49.432-161.193C430.418,78.244,352.174,0,256,0z
			 M353.808,315.586c-26.492,35.955-61.229,55.755-97.808,55.755s-71.315-19.8-97.808-55.755
			c-27.633-37.502-42.852-87.636-42.852-141.168c0-77.56,63.1-140.659,140.659-140.659s140.659,63.1,140.659,140.659
			C396.659,227.949,381.441,278.084,353.808,315.586z"/>
	</g>
</g>
<g>
	<g>
		<path d="M149.099,174.418h33.758c0-40.331,32.812-73.143,73.143-73.143V67.516C197.055,67.516,149.099,115.472,149.099,174.418z"
			/>
	</g>
</g>
<g>
</g>
<g>
</g>
<g>
</g>
<g>
</g>
<g>
</g>
<g>
</g>
<g>
</g>
<g>
</g>
<g>
</g>
<g>
</g>
<g>
</g>
<g>
</g>
<g>
</g>
<g>
</g>
<g>
</g>
</svg>
