<?xml version="1.0" encoding="iso-8859-1"?>
<!-- Generator: Adobe Illustrator 18.1.1, SVG Export Plug-In . SVG Version: 6.00 Build 0)  -->
<svg version="1.1" id="Capa_1" xmlns="http://www.w3.org/2000/svg" xmlns:xlink="http://www.w3.org/1999/xlink" x="0px" y="0px"
	 viewBox="0 0 54.605 54.605" style="enable-background:new 0 0 54.605 54.605;" xml:space="preserve">
<g>
	<g>
		<path style="fill:#010002;" d="M42.537,0H12.068C10.239,0,8.75,1.489,8.75,3.318v7.992h37.104V3.318
			C45.854,1.488,44.367,0,42.537,0z M44.046,9.501H10.56V3.318c0-0.831,0.677-1.508,1.508-1.508h30.469
			c0.831,0,1.508,0.677,1.508,1.508V9.501z"/>
		<path style="fill:#010002;" d="M8.75,43.295v0.449v7.543c0,1.83,1.489,3.318,3.318,3.318h30.469c1.829,0,3.317-1.488,3.317-3.318
			v-7.541v-0.45V12.651H8.75V43.295z M10.56,14.461h33.485v28.834H10.56V14.461z M10.56,45.104h33.485v6.184
			c0,0.83-0.677,1.509-1.508,1.509H12.068c-0.832,0-1.508-0.679-1.508-1.509V45.104z"/>
		<path style="fill:#010002;" d="M20.314,3.72h-7.139c-0.999,0-1.811,0.812-1.811,1.811v1.408c0,0.999,0.812,1.81,1.811,1.81h7.139
			c0.998,0,1.809-0.811,1.809-1.81V5.531C22.123,4.532,21.312,3.72,20.314,3.72z M20.917,6.939c0,0.332-0.27,0.604-0.603,0.604
			h-7.139c-0.333,0-0.604-0.271-0.604-0.604V5.531c0-0.333,0.271-0.603,0.604-0.603h7.139c0.333,0,0.603,0.271,0.603,0.603V6.939z"
			/>
		<path style="fill:#010002;" d="M25.543,4.827c-0.776,0-1.407,0.631-1.407,1.407c0,0.777,0.631,1.408,1.407,1.408
			c0.775,0,1.407-0.631,1.407-1.408C26.95,5.458,26.318,4.827,25.543,4.827z M25.543,7.039c-0.443,0-0.805-0.361-0.805-0.805
			c0-0.443,0.361-0.804,0.805-0.804c0.443,0,0.805,0.361,0.805,0.804C26.348,6.678,25.986,7.039,25.543,7.039z"/>
		<path style="fill:#010002;" d="M29.089,4.827c-0.775,0-1.408,0.631-1.408,1.407c0,0.777,0.632,1.408,1.408,1.408
			s1.407-0.631,1.407-1.408C30.497,5.458,29.865,4.827,29.089,4.827z M29.089,7.039c-0.443,0-0.805-0.361-0.805-0.805
			c0-0.443,0.359-0.804,0.805-0.804c0.442,0,0.805,0.361,0.805,0.804C29.894,6.678,29.531,7.039,29.089,7.039z"/>
		<path style="fill:#010002;" d="M32.549,4.827c-0.776,0-1.409,0.631-1.409,1.407c0,0.777,0.633,1.408,1.409,1.408
			c0.775,0,1.407-0.631,1.407-1.408C33.957,5.458,33.325,4.827,32.549,4.827z M32.549,7.039c-0.444,0-0.805-0.361-0.805-0.805
			c0-0.443,0.36-0.804,0.805-0.804c0.442,0,0.804,0.361,0.804,0.804C33.354,6.678,32.992,7.039,32.549,7.039z"/>
		<path style="fill:#010002;" d="M39.018,3.72c-1.386,0-2.514,1.128-2.514,2.514c0,1.387,1.128,2.514,2.514,2.514
			c1.387,0,2.516-1.127,2.516-2.514C41.532,4.848,40.403,3.72,39.018,3.72z M39.018,7.542c-0.721,0-1.307-0.587-1.307-1.308
			s0.586-1.307,1.307-1.307c0.723,0,1.309,0.586,1.309,1.307C40.325,6.955,39.737,7.542,39.018,7.542z"/>
		<path style="fill:#010002;" d="M40.501,27.901h-0.926c-0.53-6.283-5.807-11.235-12.222-11.235
			c-6.768,0-12.273,5.506-12.273,12.274s5.505,12.272,12.273,12.272c6.242,0,11.4-4.687,12.167-10.724h0.98
			c0.196,0,0.354-0.16,0.354-0.354v-1.88C40.854,28.059,40.698,27.901,40.501,27.901z M27.353,40.097
			c-6.153,0-11.159-5.004-11.159-11.155c0-6.154,5.005-11.159,11.159-11.159c5.8,0,10.573,4.453,11.1,10.118h-1.12
			c-0.523-5.049-4.796-9-9.98-9c-5.537,0-10.042,4.504-10.042,10.042c0,5.535,4.505,10.041,10.042,10.041
			c5.007,0,9.166-3.69,9.914-8.492h1.129C37.639,35.908,32.979,40.097,27.353,40.097z M35.634,30.491h1.068
			c-0.743,4.494-4.646,7.935-9.349,7.935c-5.23,0-9.484-4.254-9.484-9.483s4.254-9.485,9.484-9.485c4.876,0,8.895,3.704,9.417,8.444
			h-1.137c-0.195,0-0.354,0.159-0.354,0.354v1.88C35.28,30.33,35.438,30.491,35.634,30.491z M40.147,29.782h-4.16V28.61h4.16V29.782
			z"/>
		<path style="fill:#010002;" d="M22.373,22.226c-2.973,1.898-3.304,4.8-3.316,4.923c-0.02,0.194,0.121,0.367,0.315,0.388
			c0.013,0.002,0.026,0.002,0.038,0.002c0.178,0,0.332-0.135,0.351-0.316c0.003-0.027,0.319-2.692,2.994-4.4
			c0.164-0.105,0.213-0.324,0.107-0.489C22.757,22.167,22.537,22.12,22.373,22.226z"/>
	</g>
</g>
<g>
</g>
<g>
</g>
<g>
</g>
<g>
</g>
<g>
</g>
<g>
</g>
<g>
</g>
<g>
</g>
<g>
</g>
<g>
</g>
<g>
</g>
<g>
</g>
<g>
</g>
<g>
</g>
<g>
</g>
</svg>
